PathFileType	4	(X/Y/Z)	Patient4_TMGait_0pt5_02_right_05.trc.trc
DataRate	CameraRate	NumFrames	NumMarkers	Units	OrigDataRate	OrigDataStartFrame	OrigNumFrames
72.538860103627	72.538860103627	4	33	mm	72.538860103627	124	       141
Frame#	Time	Sacral			L.Shoulder			Chest			R.Shoulder			Neck			R.ASIS			L.ASIS			R.Thigh.Superior			R.Thigh.Lateral			R.Thigh.Inferior			R.Patella			L.Thigh.Superior			L.Thigh.Lateral			L.Thigh.Inferior			L.Patella			L.Shank.Superior			L.Shank.Lateral			L.Shank.Inferior			R.Shank.Superior			R.Shank.Lateral			R.Shank.Inferior			R.Heel			R.Midfoot.Superior			R.Midfoot.Lateral			R.Toe			L.Heel			L.Midfoot.Lateral			L.Midfoot.Superior			L.Toe			L.Elbow			L.Wrist			R.Elbow			R.Wrist			
		X1	Y1	Z1	X2	Y2	Z2	X3	Y3	Z3	X4	Y4	Z4	X5	Y5	Z5	X6	Y6	Z6	X7	Y7	Z7	X8	Y8	Z8	X9	Y9	Z9	X10	Y10	Z10	X11	Y11	Z11	X12	Y12	Z12	X13	Y13	Z13	X14	Y14	Z14	X15	Y15	Z15	X16	Y16	Z16	X17	Y17	Z17	X18	Y18	Z18	X19	Y19	Z19	X20	Y20	Z20	X21	Y21	Z21	X22	Y22	Z22	X23	Y23	Z23	X24	Y24	Z24	X25	Y25	Z25	X26	Y26	Z26	X27	Y27	Z27	X28	Y28	Z28	X29	Y29	Z29	X30	Y30	Z30	X31	Y31	Z31	X32	Y32	Z32	X33	Y33	Z33	

124	8.115642857143	557.528700589605	1000.235575732662	455.873604120372	758.185440669176	1425.601222172105	288.499144087442	842.844001505567	1352.503920847584	457.995230714619	745.718067332459	1429.330574244800	624.324827067400	743.460071517277	1485.618781097196	438.864564204565	774.559600312573	929.876359905958	585.976779072807	779.211856590898	951.841602981258	310.643261667430	840.076626768875	750.998686891649	563.525564694005	777.127525540426	630.835058486762	625.571093964632	870.050802029109	590.716134418214	552.971246126105	894.240921629718	508.342351979207	565.184165181745	775.793530979200	723.611810369281	336.173695330755	657.262240324427	632.609028459825	276.622470069894	712.049696075440	538.961485372310	344.272965730323	695.918654283699	471.180738036572	354.397026849902	661.173580177768	406.893759733361	346.194179448389	559.486539286787	303.428759029975	294.165291507076	593.732909311176	188.586917734993	369.143359757428	880.301687690734	419.311179515412	571.274863346304	823.705699328142	303.643616646504	625.602321334091	896.159505855780	219.998093805111	575.428995271456	801.086439561783	41.596653381883	536.917551791866	964.051443365185	106.809459273443	582.818898154761	881.499628906867	36.892878975199	615.047490995450	1086.024068294946	62.806352597648	616.072896987770	450.300132593722	39.043760978638	412.035456425592	524.838161454286	34.914382577341	332.248781162301	608.906937242564	95.055269172007	358.673563266152	736.784005128600	40.469347130571	331.481834103289	789.983178665345	1091.572749366986	134.649211680548	1038.142289418972	1019.836114180868	142.533532998895	588.536542539403	1119.604792827227	718.390136075109	551.915948232169	860.241510719736	717.352597133991	
125	8.129428571429	559.498210342382	998.890781282245	457.971413316439	758.393780240842	1425.313257049446	292.038918930246	843.312160773040	1352.354111976744	461.459448668400	745.469749671454	1428.160889311161	627.922324677877	743.376089091577	1484.990075728884	442.626284926622	776.565314409065	928.842150201710	588.229526091159	781.244312338434	951.280385474762	313.148739966479	842.546504407156	749.609666375410	565.499913700872	777.854808728187	629.532595551997	625.744806211060	871.074251705393	589.805610085629	553.555762505548	893.640182011528	506.639218226154	564.675282677578	777.830230543615	722.762737194133	337.835721189759	659.164060355989	631.758547997913	278.561096657864	713.795867050413	537.787876595234	346.099628143583	697.536007254865	469.206045534226	355.980494894301	661.061226722678	405.328847974968	347.697181312668	557.265692731948	304.044284094539	295.239271178930	589.107195273287	188.230254305161	369.601847599372	879.346896594637	417.038391425291	570.713728454793	821.614427128194	301.980438336153	625.097986800889	892.331107006661	217.583185820110	574.130852644169	793.853281176287	41.527278796788	535.772160370244	957.906124842505	104.451401702459	581.178653995955	874.042188915043	36.480983291520	614.201046189900	1079.249223723983	58.467721575061	614.909429383684	443.393043022600	40.255608696808	411.806624422317	518.043391532370	35.380378791210	332.228850912547	602.459728877681	95.191107860676	358.606039157857	730.037628359852	40.063101442379	331.453164639826	788.266815856033	1090.364118658224	138.722042738883	1035.937143176312	1016.469131372582	146.950350148871	592.516744990451	1115.610468800648	721.037213671247	559.837694582660	855.562826811072	719.114516153872	
126	8.143214285714	561.338347390903	997.937258020072	460.100422933830	758.679498448072	1425.377762387981	295.675270868735	843.851115126259	1352.467426707804	464.993709898240	745.341774730298	1427.265825348148	631.597986461415	743.462125459203	1484.690935387776	446.502802659250	778.524992593195	928.234953313478	590.543697028026	783.157751968233	951.041351734560	315.700601017929	845.089944153456	748.739134465087	567.207115358009	779.187554368075	628.871736006681	626.066391371135	872.306092548271	589.382235822230	553.861741745000	893.293063512210	505.300045507037	564.127243605251	780.237897636822	722.341093981104	339.761602329730	661.743283608637	630.955640940677	280.649238080686	716.635075751525	536.760049818041	347.965862599524	700.346550015743	467.214753175545	357.474186064120	661.891858140642	403.773019904230	349.180231979030	555.721294086632	305.019063970271	296.393277919013	584.921269161726	188.140140224768	369.994982539329	878.497381380905	415.193168736512	570.252001693935	819.672958670287	300.872300694531	625.067013388776	888.272081186297	215.549318239127	573.076208465719	786.149438374176	41.557714699049	535.116508535297	951.236365751711	102.510056314557	579.915536501484	866.225651348256	36.241560468894	613.744036929008	1072.053520281368	54.906828331135	613.965001452494	436.608654976176	42.211391559021	411.535616844150	511.333607762641	36.204348539810	332.193418696577	596.307240124711	95.438769580752	358.420932314742	723.332739483845	39.608589429513	331.412814994584	786.078985601591	1089.350287699888	143.075252263265	1032.956977372590	1012.108870920819	151.379335724885	597.278815307522	1111.575590717703	723.881431931591	569.375747783804	850.781689829280	721.380839763611	
127	8.157000000000	563.026745141294	997.420450443583	462.273098516913	759.059727307796	1425.832856260031	299.369084300301	844.447870364176	1352.867432161868	468.562715115876	745.345307174420	1426.702979300476	635.310385331343	743.714663498618	1484.753002858386	450.442441652586	780.403513599619	928.091115856678	592.927689788086	784.911900293974	951.165185040330	318.288788316635	847.555652580925	748.368086821788	568.645478942230	780.952406261383	628.810116692333	626.593267169626	873.565381074723	589.353926868573	553.973263400665	893.038074248096	504.307338042828	563.658597444052	782.980495219165	722.379531960871	341.968040373739	665.034765622513	630.224643276665	282.851924513333	720.637114989134	535.922316934197	349.834164845175	704.418054498606	465.254921109738	358.792198470271	663.735103364277	402.279328959082	350.572739337995	554.932730656821	306.429414929207	297.591776696439	581.267600991105	188.404741800533	370.280832349690	877.625972465167	413.790133136732	569.960669350912	817.792803885046	300.267334734733	625.458272797045	884.066344905082	213.941895879195	572.307278169377	778.342271182240	41.639326117339	534.870666856428	944.332537696694	101.015137083343	579.063635345811	858.387944944268	36.133080735267	613.613154529850	1064.730127217011	52.241959158464	613.286142120836	430.029569553074	45.096695825917	411.227389459526	504.750371598956	37.504384369913	332.139025097543	590.531027831964	95.830389148405	358.095371354976	716.661811240783	39.124176594998	331.367618894592	783.446955304790	1088.605625803271	147.698430764889	1029.159750980992	1006.793839418983	155.810115004525	602.731968315933	1107.656033825822	726.878440234283	580.475141892491	846.109974609460	724.126080101167	
